<?xml version="1.0" encoding="UTF-8" standalone="no"?>
<!-- Created with Inkscape (http://www.inkscape.org/) -->

<svg
   version="1.1"
   id="svg1"
   width="1440"
   height="1440"
   viewBox="0 0 1440 1440"
   sodipodi:docname="WHITE PDF 2.pdf"
   xmlns:inkscape="http://www.inkscape.org/namespaces/inkscape"
   xmlns:sodipodi="http://sodipodi.sourceforge.net/DTD/sodipodi-0.dtd"
   xmlns="http://www.w3.org/2000/svg"
   xmlns:svg="http://www.w3.org/2000/svg">
  <defs
     id="defs1">
    <clipPath
       clipPathUnits="userSpaceOnUse"
       id="clipPath4">
      <path
         d="M 0,1080 H 1080 V 0 H 0 Z"
         transform="translate(-421.90831,-492.28761)"
         id="path4" />
    </clipPath>
    <clipPath
       clipPathUnits="userSpaceOnUse"
       id="clipPath6">
      <path
         d="M 0,1080 H 1080 V 0 H 0 Z"
         transform="translate(-643.98212,-492.29701)"
         id="path6" />
    </clipPath>
    <clipPath
       clipPathUnits="userSpaceOnUse"
       id="clipPath8">
      <path
         d="M 0,1080 H 1080 V 0 H 0 Z"
         transform="translate(-755.19242,-596.49292)"
         id="path8" />
    </clipPath>
    <clipPath
       clipPathUnits="userSpaceOnUse"
       id="clipPath10">
      <path
         d="M 0,1080 H 1080 V 0 H 0 Z"
         transform="translate(-399.69011,-594.89831)"
         id="path10" />
    </clipPath>
    <clipPath
       clipPathUnits="userSpaceOnUse"
       id="clipPath12">
      <path
         d="M 0,1080 H 1080 V 0 H 0 Z"
         transform="translate(-900.78092,-523.97281)"
         id="path12" />
    </clipPath>
    <clipPath
       clipPathUnits="userSpaceOnUse"
       id="clipPath14">
      <path
         d="M 0,1080 H 1080 V 0 H 0 Z"
         transform="translate(-931.00795,-499.08051)"
         id="path14" />
    </clipPath>
    <clipPath
       clipPathUnits="userSpaceOnUse"
       id="clipPath16">
      <path
         d="M 0,1080 H 1080 V 0 H 0 Z"
         transform="translate(-295.3477,-552.32752)"
         id="path16" />
    </clipPath>
    <clipPath
       clipPathUnits="userSpaceOnUse"
       id="clipPath18">
      <path
         d="M 0,1080 H 1080 V 0 H 0 Z"
         transform="translate(-532.94071,-552.34252)"
         id="path18" />
    </clipPath>
  </defs>
  <sodipodi:namedview
     id="namedview1"
     pagecolor="#ffffff"
     bordercolor="#000000"
     borderopacity="0.25"
     inkscape:showpageshadow="2"
     inkscape:pageopacity="0.0"
     inkscape:pagecheckerboard="0"
     inkscape:deskcolor="#d1d1d1">
    <inkscape:page
       x="0"
       y="0"
       inkscape:label="1"
       id="page1"
       width="1440"
       height="1440"
       margin="644.664 178.74933"
       bleed="0" />
  </sodipodi:namedview>
  <g
     id="layer-MC0"
     inkscape:groupmode="layer"
     inkscape:label="Vrstva 1">
    <path
       id="path1"
       d="M 0,0 H -15.296 V -112.704 H 0 v 53.249 h 25.028 v 15.296 l -25.028,0 z"
       style="fill:#ffffff;fill-opacity:1;fill-rule:nonzero;stroke:none"
       transform="matrix(1.3333333,0,0,-1.3333333,199.1444,644.69107)" />
    <path
       id="path2"
       d="m 613.388,483.789 h 15.296 v 112.704 h -15.296 z"
       style="fill:#ffffff;fill-opacity:1;fill-rule:nonzero;stroke:none"
       transform="matrix(1.3333333,0,0,-1.3333333,0,1440)" />
    <path
       id="path3"
       d="M 0,0 C 0,-4.703 3.799,-8.515 8.501,-8.515 H 80.618 V 6.79 H 15.292 V 44.738 H 41.687 V 60.03 H 15.292 v 28.867 h 65.326 v 15.292 l -80.618,0 z"
       style="fill:#ffffff;fill-opacity:1;fill-rule:nonzero;stroke:none"
       transform="matrix(1.3333333,0,0,-1.3333333,562.5444,783.61653)"
       clip-path="url(#clipPath4)" />
    <path
       id="path5"
       d="M 0,0 C 0,-4.703 3.798,-8.501 8.501,-8.501 H 80.618 V 6.79 H 15.292 V 44.738 H 41.687 V 60.044 H 15.292 v 28.853 h 65.326 v 15.306 l -80.618,0 z"
       style="fill:#ffffff;fill-opacity:1;fill-rule:nonzero;stroke:none"
       transform="matrix(1.3333333,0,0,-1.3333333,858.6428,783.604)"
       clip-path="url(#clipPath6)" />
    <path
       id="path7"
       d="m 0,0 h -15.305 v -104.189 c 0,-4.703 3.812,-8.515 8.515,-8.515 h 72.117 v 15.292 l -65.327,0 z"
       style="fill:#ffffff;fill-opacity:1;fill-rule:nonzero;stroke:none"
       transform="matrix(1.3333333,0,0,-1.3333333,1006.9232,644.67613)"
       clip-path="url(#clipPath8)" />
    <path
       id="path9"
       d="M 0,0 -33.268,-35.704 -66.828,0.302 C -69.38,3.04 -73.744,1.1 -73.744,-2.774 v -108.237 h 15.306 v 79.085 l 14.345,-15.381 4.559,-4.892 c 3.46,-3.714 9.071,-3.712 12.529,0.004 l 4.549,4.888 14.067,15.098 v -79.19 H 6.916 V -3.075 C 6.916,0.799 2.552,2.739 0,0"
       style="fill:#ffffff;fill-opacity:1;fill-rule:nonzero;stroke:none"
       transform="matrix(1.3333333,0,0,-1.3333333,532.92013,646.80227)"
       clip-path="url(#clipPath10)" />
    <path
       id="path11"
       d="m 0,0 c 0,-2.338 -0.32,-4.592 -0.932,-6.734 -2.936,-10.533 -12.634,-18.283 -24.086,-18.283 h -25.031 v 82.371 h 25.031 C -11.229,57.354 0,46.125 0,32.336 Z m -21.831,72.52 h -43.51 v -97.537 -0.014 -15.153 h 43.51 C -1.044,-38.57 15.305,-21.191 15.305,0 v 32.336 c 0,21.191 -16.349,38.57 -37.136,40.184"
       style="fill:#ffffff;fill-opacity:1;fill-rule:nonzero;stroke:none"
       transform="matrix(1.3333333,0,0,-1.3333333,1201.0412,741.3696)"
       clip-path="url(#clipPath12)" />
    <path
       id="path13"
       d="m 0,0 v -6.776 c 0,-4.703 3.812,-8.516 8.515,-8.516 H 14.93 V 0 Z"
       style="fill:#ffffff;fill-opacity:1;fill-rule:nonzero;stroke:none"
       transform="matrix(1.3333333,0,0,-1.3333333,1241.3439,774.55933)"
       clip-path="url(#clipPath14)" />
    <path
       id="path15"
       d="m 0,0 h -50.04 v 3.83 c 0,13.78 11.23,25.01 25.02,25.01 C -11.23,28.84 0,17.61 0,3.83 Z M -25.02,44.15 C -47.3,44.15 -65.34,26.09 -65.34,3.83 V 0 h -15.3 v 44.15 h -15.29 v -112.7 h 15.29 v 53.24 H 0 v -13.2 c 0,-0.71 -0.03,-1.41 -0.1,-2.1 -0.12,-1.6 -0.4,-3.15 -0.83,-4.64 -2.94,-10.53 -12.64,-18.28 -24.09,-18.28 -11.45,0 -21.15,7.75 -24.08,18.28 -0.44,1.49 -0.71,3.04 -0.84,4.64 h -15.33 c 0.07,-1.57 0.23,-3.12 0.5,-4.64 0.1,-0.57 0.21,-1.15 0.32,-1.71 0.01,-0.09 0.04,-0.21 0.07,-0.3 0.11,-0.52 0.23,-1 0.36,-1.51 0.29,-1.15 0.65,-2.29 1.06,-3.39 0.12,-0.33 0.25,-0.67 0.39,-1 0.08,-0.28 0.19,-0.56 0.32,-0.82 0.14,-0.34 0.27,-0.67 0.43,-1 0.08,-0.21 0.18,-0.42 0.29,-0.63 0.11,-0.25 0.22,-0.5 0.36,-0.74 0.18,-0.42 0.39,-0.82 0.61,-1.22 0.07,-0.13 0.13,-0.25 0.2,-0.36 0.18,-0.34 0.37,-0.67 0.58,-1.01 0.18,-0.32 0.38,-0.64 0.57,-0.96 0.28,-0.44 0.57,-0.89 0.87,-1.32 0.21,-0.3 0.41,-0.61 0.65,-0.9 0.49,-0.7 1,-1.38 1.56,-2.03 0.39,-0.48 0.79,-0.95 1.21,-1.41 0.5,-0.56 1.02,-1.1 1.56,-1.61 0.4,-0.41 0.8,-0.81 1.24,-1.19 0.47,-0.43 0.94,-0.85 1.44,-1.25 0,-0.01 0.02,-0.03 0.04,-0.04 0.42,-0.35 0.87,-0.7 1.31,-1.03 0.11,-0.1 0.24,-0.18 0.36,-0.26 0.39,-0.31 0.78,-0.59 1.19,-0.84 0.65,-0.47 1.32,-0.89 2,-1.31 0.38,-0.23 0.77,-0.46 1.16,-0.65 1.26,-0.72 2.56,-1.35 3.91,-1.92 0.59,-0.27 1.21,-0.5 1.82,-0.72 0.55,-0.21 1.11,-0.41 1.68,-0.58 0.22,-0.06 0.46,-0.13 0.68,-0.2 0.34,-0.12 0.67,-0.21 1.02,-0.3 0.33,-0.08 0.67,-0.18 1,-0.25 0.27,-0.07 0.54,-0.14 0.82,-0.18 0.36,-0.09 0.74,-0.16 1.1,-0.22 0.17,-0.04 0.35,-0.08 0.52,-0.1 0.46,-0.09 0.91,-0.16 1.37,-0.22 0.59,-0.08 1.16,-0.15 1.74,-0.21 0.6,-0.07 1.2,-0.11 1.81,-0.14 h 0.07 c 0.68,-0.04 1.36,-0.05 2.06,-0.05 0.7,0 1.38,0.01 2.06,0.05 h 0.07 c 0.61,0.03 1.21,0.07 1.81,0.14 0.58,0.06 1.17,0.13 1.74,0.21 0.46,0.06 0.92,0.13 1.38,0.22 0.16,0.02 0.33,0.06 0.51,0.1 0.36,0.06 0.74,0.13 1.1,0.22 0.28,0.04 0.56,0.11 0.82,0.18 0.33,0.07 0.67,0.17 1,0.25 0.35,0.09 0.68,0.18 1.02,0.3 0.23,0.07 0.46,0.14 0.68,0.2 0.57,0.17 1.13,0.37 1.68,0.58 0.62,0.22 1.23,0.45 1.83,0.72 1.33,0.56 2.64,1.2 3.91,1.92 0.39,0.19 0.77,0.42 1.15,0.65 0.68,0.41 1.35,0.84 2,1.31 0.41,0.25 0.8,0.53 1.19,0.84 0.11,0.07 0.23,0.16 0.36,0.26 0.44,0.33 0.89,0.68 1.31,1.03 0.01,0.01 0.02,0.01 0.04,0.04 0.5,0.4 0.97,0.82 1.45,1.25 0.43,0.38 0.83,0.78 1.23,1.19 0.53,0.51 1.06,1.05 1.56,1.61 0.42,0.46 0.82,0.93 1.21,1.41 0.55,0.65 1.07,1.33 1.56,2.03 0.24,0.29 0.45,0.6 0.65,0.9 0.3,0.43 0.59,0.88 0.87,1.32 0.19,0.32 0.39,0.64 0.57,0.96 0.21,0.34 0.4,0.67 0.58,1.01 0.06,0.11 0.13,0.23 0.2,0.36 0.22,0.4 0.43,0.8 0.61,1.22 0.14,0.24 0.25,0.49 0.36,0.74 0.11,0.21 0.2,0.42 0.29,0.63 0.16,0.33 0.3,0.66 0.43,1 0.12,0.26 0.23,0.54 0.32,0.82 0.14,0.33 0.27,0.67 0.39,1 0.41,1.11 0.76,2.24 1.06,3.39 0.13,0.51 0.25,0.99 0.36,1.51 0.02,0.09 0.05,0.19 0.07,0.3 0.11,0.56 0.23,1.14 0.32,1.71 0.38,2.19 0.57,4.44 0.57,6.74 V 3.83 c 0,22.26 -18.04,40.32 -40.32,40.32"
       style="fill:#ffffff;fill-opacity:1;fill-rule:nonzero;stroke:none"
       transform="matrix(1.3333333,0,0,-1.3333333,393.79693,703.56333)"
       clip-path="url(#clipPath16)" />
    <path
       id="path17"
       d="M 0,0 V 28.87 H 65.33 V 44.16 H -15.29 V -68.55 h 15.28 v 53.26 H 8.15 65.34 L 65.34,0 H 8.15 Z"
       style="fill:#ffffff;fill-opacity:1;fill-rule:nonzero;stroke:none"
       transform="matrix(1.3333333,0,0,-1.3333333,710.5876,703.54333)"
       clip-path="url(#clipPath18)" />
  </g>
</svg>
